<svg xmlns="http://www.w3.org/2000/svg" version="1.1" x="0" y="0" viewBox="0 0 75 75" enable-background="new 0 0 75 75" xml:space="preserve"><style>
	.style0{
		stroke:	#F08C35;
		stroke-width:	2;
		stroke-miterlimit:	10;
		fill:	none;
	}
	.style1{
		fill:	#F08C35;
	}
	.style2{
		opacity:	0.8;
	}
	.style3{
		opacity:	0.5;
		fill:	#F6A926;
	}
	.style4{
		opacity:	0.3;
		fill:	#F6A926;
	}
</style><circle cx="37.9" cy="35.4" r="27.2" class="style0"/><path d="M25.4 27.8c0.4 0.1 0.7 0.5 0.7 0.9l0 12.7c0 1.1 0.1 2.2 0.3 3.1 0.5 2.7 2.6 4.9 5.3 5.6 1.7 0.4 3.6 0.6 5.6 0.6 2 0 3.9-0.2 5.6-0.6 2.8-0.6 4.9-2.9 5.4-5.7 0.1-0.9 0.2-1.8 0.2-2.8V26.6l0-1.7c0-0.9 0.2-1.3 1.1-1.5l1.5-0.2c0.1 0 0.2-0.1 0.2-0.1 0.2-0.2 0.2-0.4 0-0.6 0 0-2 0-4.4 0-2.5 0-4 1-4 4.2 0 3.5 0 14.7 0 14.7 0 1.3-0.2 2.4-0.5 3.5-0.4 1.2-1.2 2.1-2.3 2.6-1.1 0.5-2.5 0.8-4.1 0.8-1.5 0-2.9-0.3-3.9-0.7-1.1-0.5-2.1-1.6-2.4-2.6-0.3-1-0.5-2.4-0.5-3.5V28.8c0-0.5 0.3-0.9 0.8-0.9l1.4-0.2c0.1 0 0.1 0 0.2-0.1 0.1-0.1 0.1-0.4 0-0.5h-7.4c-0.1 0.1-0.1 0.4 0 0.5 0 0 0.1 0.1 0.2 0.1L25.4 27.8z" class="style1"/><g class="style2"><path d="M9.3 35.2c0 0-0.3 0.1-0.8 0.4-0.5 0.3-1.2 0.7-2.1 1.3-0.4 0.3-0.9 0.7-1.3 1.1-0.4 0.4-0.8 1-0.8 1.5-0.1 0.5 0.4 1.1 1.1 1.4 0.2 0.1 0.3 0.2 0.5 0.3l0.1 0.1c0 0 0.1 0 0.1 0l0.3 0.1c0.4 0.1 0.9 0.3 1.3 0.3 1.8 0.3 3.8 0.5 5.9 0.6 2.1 0.1 4.4 0.1 6.7 0.1 1.2 0 2.3-0.1 3.5-0.1 1.2-0.1 2.4-0.1 3.6-0.2 1.2-0.1 2.4-0.2 3.7-0.3 1.2-0.1 2.5-0.2 3.7-0.4 1.2-0.2 2.5-0.3 3.7-0.5 1.2-0.2 2.4-0.4 3.6-0.6 1.2-0.2 2.4-0.4 3.5-0.7 1.2-0.3 2.3-0.5 3.4-0.8 1.1-0.3 2.2-0.6 3.3-0.9 0.5-0.1 1.1-0.3 1.6-0.4 0.5-0.2 1-0.3 1.5-0.5 1-0.3 2-0.6 2.9-1 0.9-0.3 1.8-0.7 2.7-1.1 0.9-0.3 1.7-0.7 2.5-1 0.8-0.4 1.5-0.7 2.2-1.1 0.7-0.3 1.3-0.6 1.9-0.9 0.6-0.3 1.1-0.6 1.5-0.9 1.8-1.1 2.9-1.8 2.9-1.8s-1 0.7-2.9 1.8c-0.5 0.3-0.9 0.6-1.5 0.9-0.6 0.3-1.2 0.6-1.9 1-0.7 0.3-1.4 0.7-2.1 1.1-0.8 0.3-1.6 0.7-2.5 1-0.9 0.3-1.7 0.7-2.7 1.1-0.9 0.3-1.9 0.7-2.9 1-0.5 0.2-1 0.3-1.5 0.5-0.5 0.2-1.1 0.3-1.6 0.5-1.1 0.3-2.2 0.6-3.3 0.9-1.1 0.3-2.3 0.5-3.4 0.8-1.2 0.3-2.3 0.5-3.6 0.7-1.2 0.2-2.4 0.4-3.6 0.7-1.2 0.2-2.5 0.3-3.7 0.5-1.2 0.2-2.5 0.3-3.7 0.4-1.2 0.1-2.5 0.3-3.7 0.3-1.2 0.1-2.4 0.2-3.6 0.2-1.2 0-2.4 0.1-3.5 0.1-2.3 0-4.6 0.1-6.7 0-2.1-0.1-4.1-0.3-6.1-0.6-0.5-0.1-0.9-0.2-1.3-0.3L6 42.2c-0.1 0-0.1 0-0.2-0.1l-0.2-0.1C5.4 42 5.2 41.9 5 41.8c-0.4-0.2-0.8-0.5-1.1-0.9-0.3-0.4-0.5-0.9-0.5-1.4 0.1-1 0.6-1.6 1.1-2.1 0.5-0.5 1-0.9 1.4-1.3 0.9-0.7 1.6-1.1 2.2-1.4 0.5-0.3 0.8-0.4 0.8-0.4L9.3 35.2z" class="style1"/></g><path d="M71.1 52c0 1.4-1.2 2.6-2.6 2.6-1.4 0-2.6-1.2-2.6-2.6 0-1.4 1.2-2.6 2.6-2.6C70 49.4 71.1 50.6 71.1 52z" class="style3"/><circle cx="5.4" cy="25.4" r="4.1" class="style3"/><path d="M24.6 56.2c0 4.9-4 8.9-8.9 8.9-4.9 0-8.9-4-8.9-8.9 0-4.9 4-8.9 8.9-8.9C20.6 47.3 24.6 51.3 24.6 56.2z" class="style4"/></svg>